<?xml version="1.0" encoding="UTF-8" standalone="no"?>
<svg
   xmlns:dc="http://purl.org/dc/elements/1.1/"
   xmlns:cc="http://creativecommons.org/ns#"
   xmlns:rdf="http://www.w3.org/1999/02/22-rdf-syntax-ns#"
   xmlns:svg="http://www.w3.org/2000/svg"
   xmlns="http://www.w3.org/2000/svg"
   xmlns:sodipodi="http://sodipodi.sourceforge.net/DTD/sodipodi-0.dtd"
   xmlns:inkscape="http://www.inkscape.org/namespaces/inkscape"
   viewBox="0 0 191 49"
   version="1.1"
   id="svg9674"
   sodipodi:docname="logo-ps.svg"
   width="191"
   height="49"
   inkscape:version="0.92.4 5da689c313, 2019-01-14">
  <metadata
     id="metadata9680">
    <rdf:RDF>
      <cc:Work
         rdf:about="">
        <dc:format>image/svg+xml</dc:format>
        <dc:type
           rdf:resource="http://purl.org/dc/dcmitype/StillImage" />
        <dc:title></dc:title>
      </cc:Work>
    </rdf:RDF>
  </metadata>
  <defs
     id="defs9678" />
  <sodipodi:namedview
     pagecolor="#ffffff"
     bordercolor="#666666"
     borderopacity="1"
     objecttolerance="10"
     gridtolerance="10"
     guidetolerance="10"
     inkscape:pageopacity="0"
     inkscape:pageshadow="2"
     inkscape:window-width="1920"
     inkscape:window-height="1053"
     id="namedview9676"
     showgrid="false"
     inkscape:zoom="4.3102871"
     inkscape:cx="78.298673"
     inkscape:cy="-4.4028059"
     inkscape:window-x="0"
     inkscape:window-y="27"
     inkscape:window-maximized="0"
     inkscape:current-layer="svg9674" />
  <g
     transform="matrix(0.48643434,0,0,0.48643434,-45.092857,-45.125045)"
     id="g9672">
    <path
       d="m 184.5423,94.5 h -42.34149 l -9,36 18,27 -9,36 h 42.34149 a 7.15849,7.15849 0 0 0 7.15851,-7.15851 v -84.683 A 7.15847,7.15847 0 0 0 184.5423,94.5 Z"
       id="path9626"
       inkscape:connector-curvature="0"
       style="fill:#9ba2b5" />
    <path
       d="m 133.20081,130.5 9,-36 H 99.85932 a 7.15848,7.15848 0 0 0 -7.15851,7.15845 v 84.683 A 7.15849,7.15849 0 0 0 99.85932,193.5 h 42.34149 l 9,-36 z"
       id="path9628"
       inkscape:connector-curvature="0"
       style="fill:#38466d" />
    <path
       d="m 152.523,179.1012 c 0.10534,0.0651 0.21563,0.12243 0.32153,0.18664 0.0769,0.0533 0.14691,0.11554 0.22558,0.16644 0.25586,0.13819 0.50635,0.28479 0.753,0.4372 0.0856,0.0443 0.17786,0.0767 0.265,0.11841 a 8.89446,8.89446 0 0 0 7.99207,-0.11841 c 0.24664,-0.15241 0.49713,-0.299 0.753,-0.4372 a 8.97243,8.97243 0 0 0 0.22528,-14.94244 q -0.61424,-0.37226 -1.24323,-0.72174 a 8.82987,8.82987 0 0 0 -7.72717,0 q -0.62934,0.349 -1.24323,0.72174 c -0.106,0.0643 -0.21643,0.1217 -0.32183,0.18683 -0.15729,0.0814 -0.31989,0.1535 -0.4795,0.23083 l -3.17511,12.70044 a 22.4683,22.4683 0 0 1 3.65461,1.47126 z"
       id="path9630"
       inkscape:connector-curvature="0"
       style="fill:#38466d" />
    <path
       d="m 178.58234,136.44568 c -0.25586,-0.13818 -0.50635,-0.28479 -0.753,-0.4372 a 8.89426,8.89426 0 0 0 -7.99212,-0.11834 q -0.62934,0.349 -1.24323,0.72174 c -0.106,0.0643 -0.21643,0.1217 -0.32184,0.18683 a 22.6084,22.6084 0 0 1 -4.26269,1.67547 22.1219,22.1219 0 0 1 -12.11731,0 22.6085,22.6085 0 0 1 -4.2627,-1.67547 c -0.10541,-0.0651 -0.21582,-0.12256 -0.32184,-0.18683 q -0.61422,-0.37226 -1.24322,-0.72174 A 8.92432,8.92432 0 0 0 142.20081,135 a 8.81505,8.81505 0 0 0 -2.95752,0.51367 l 9.9776,14.96643 a 22.98752,22.98752 0 0 1 2.67127,-0.95428 22.1219,22.1219 0 0 1 12.11731,0 22.60416,22.60416 0 0 1 4.26269,1.67541 c 0.10535,0.0651 0.21564,0.12244 0.32153,0.18665 q 0.61414,0.37234 1.24311,0.72174 a 8.89389,8.89389 0 0 0 7.99255,-0.11816 c 0.24664,-0.15235 0.49713,-0.299 0.753,-0.43714 a 8.98751,8.98751 0 0 0 0,-15.10864 z"
       id="path9632"
       inkscape:connector-curvature="0"
       style="fill:#38466d" />
    <path
       d="m 142.20161,120.78 a 22.28435,22.28435 0 0 1 6.05865,0.84582 22.60361,22.60361 0 0 1 4.2627,1.67542 c 0.10534,0.0651 0.21563,0.12244 0.32153,0.18664 0.0769,0.0533 0.14691,0.11554 0.22558,0.16645 0.25586,0.13818 0.50635,0.28479 0.753,0.43713 0.0855,0.0443 0.17756,0.0765 0.26453,0.11816 a 8.82951,8.82951 0 0 0 7.728,0 c 0.087,-0.0416 0.17908,-0.0739 0.26453,-0.11816 0.24664,-0.15234 0.49713,-0.299 0.753,-0.43713 0.0787,-0.0509 0.14868,-0.11316 0.22558,-0.16645 a 8.9724,8.9724 0 0 0 -0.22558,-14.9422 c -0.25586,-0.13818 -0.50635,-0.28479 -0.753,-0.43719 a 8.89433,8.89433 0 0 0 -7.99213,-0.11835 c -0.0871,0.0417 -0.17938,0.074 -0.265,0.11835 -0.24664,0.1524 -0.49713,0.299 -0.753,0.43719 -0.0786,0.0508 -0.14843,0.113 -0.22528,0.1662 -0.106,0.0643 -0.21643,0.12171 -0.32183,0.18683 a 22.60785,22.60785 0 0 1 -4.2627,1.67548 22.28435,22.28435 0 0 1 -6.05865,0.84582 c -0.51056,0 -1.01581,-0.0205 -1.51624,-0.0582 l -2.44775,9.79107 a 22.0198,22.0198 0 0 1 3.96406,-0.37286 z"
       id="path9634"
       inkscape:connector-curvature="0"
       style="fill:#38466d" />
    <path
       d="m 142.20167,167.22 a 22.284,22.284 0 0 1 -6.05866,-0.84582 22.60749,22.60749 0 0 1 -4.26269,-1.67548 c -0.10541,-0.0651 -0.21582,-0.12256 -0.32184,-0.18683 -0.0769,-0.0532 -0.14673,-0.11536 -0.22528,-0.1662 -0.25586,-0.13818 -0.50635,-0.28479 -0.753,-0.43719 -0.0856,-0.0443 -0.17786,-0.0767 -0.265,-0.11835 a 8.82987,8.82987 0 0 0 -7.72717,0 c -0.0871,0.0417 -0.17938,0.074 -0.26495,0.11835 -0.24665,0.1524 -0.49714,0.299 -0.753,0.43719 -0.0786,0.0508 -0.14844,0.113 -0.22529,0.1662 a 8.97244,8.97244 0 0 0 0.22529,14.94244 c 0.25585,0.13819 0.50634,0.28479 0.753,0.4372 a 8.89444,8.89444 0 0 0 7.99206,0.11841 c 0.0872,-0.0417 0.17938,-0.0741 0.265,-0.11841 0.24664,-0.15241 0.49713,-0.299 0.753,-0.4372 0.0787,-0.0509 0.14868,-0.11315 0.22558,-0.16644 0.1059,-0.0642 0.21619,-0.12158 0.32154,-0.18664 a 22.60325,22.60325 0 0 1 4.26269,-1.67542 22.28365,22.28365 0 0 1 6.05866,-0.84582 c 0.50994,0 1.01464,0.0205 1.51458,0.0582 l 2.4477,-9.79071 a 22.018,22.018 0 0 1 -3.96222,0.37256 z"
       id="path9636"
       inkscape:connector-curvature="0"
       style="fill:#837dba" />
    <path
       d="m 132.50953,138.47418 a 22.1219,22.1219 0 0 1 -12.11731,0 22.6085,22.6085 0 0 1 -4.2627,-1.67547 c -0.10541,-0.0651 -0.21582,-0.12256 -0.32184,-0.18683 q -0.61422,-0.37226 -1.24322,-0.72174 a 8.89429,8.89429 0 0 0 -7.99213,0.11834 c -0.24664,0.15241 -0.49713,0.299 -0.753,0.4372 a 8.98751,8.98751 0 0 0 0,15.10864 c 0.25586,0.13818 0.50635,0.28479 0.753,0.43714 a 8.89391,8.89391 0 0 0 7.99256,0.11816 q 0.62923,-0.3491 1.2431,-0.72174 c 0.1059,-0.0642 0.21619,-0.12158 0.32153,-0.18665 a 22.60426,22.60426 0 0 1 4.2627,-1.67541 22.1219,22.1219 0 0 1 12.11731,0 22.6039,22.6039 0 0 1 4.26269,1.67541 c 0.10535,0.0651 0.21564,0.12244 0.32154,0.18665 q 0.61413,0.37234 1.2431,0.72174 a 8.92443,8.92443 0 0 0 3.864,0.89038 8.81623,8.81623 0 0 0 2.95746,-0.51373 l -9.9776,-14.96637 a 22.99821,22.99821 0 0 1 -2.67119,0.95428 z"
       id="path9638"
       inkscape:connector-curvature="0"
       style="fill:#14b1e6" />
    <path
       d="m 131.88032,108.89868 c -0.10541,-0.0651 -0.21582,-0.12256 -0.32184,-0.18683 -0.0769,-0.0532 -0.14673,-0.11535 -0.22528,-0.1662 -0.25586,-0.13818 -0.50635,-0.28479 -0.753,-0.43719 -0.0856,-0.0443 -0.17786,-0.0767 -0.265,-0.11835 a 8.89431,8.89431 0 0 0 -7.99212,0.11835 c -0.24665,0.1524 -0.49714,0.299 -0.753,0.43719 a 8.9724,8.9724 0 0 0 -0.22559,14.9422 c 0.0769,0.0533 0.14691,0.11554 0.22559,0.16645 0.25585,0.13818 0.50634,0.28479 0.753,0.43713 0.0854,0.0442 0.17755,0.0765 0.26452,0.11816 a 8.82951,8.82951 0 0 0 7.728,0 c 0.087,-0.0416 0.17908,-0.0739 0.26453,-0.11816 0.24664,-0.15234 0.49713,-0.299 0.753,-0.43713 0.0787,-0.0509 0.14868,-0.11316 0.22558,-0.16645 0.1059,-0.0642 0.21619,-0.12158 0.32154,-0.18664 0.15667,-0.0811 0.31866,-0.15283 0.47766,-0.22992 l 3.17547,-12.70184 a 22.46568,22.46568 0 0 1 -3.65306,-1.47077 z"
       id="path9640"
       inkscape:connector-curvature="0"
       style="fill:#fdbd4e" />
    <path
       d="m 219.12973,136.39194 v 17.86779 H 209.7 v -50.76 h 16.51107 a 28.89581,28.89581 0 0 1 8.79788,1.19347 16.92927,16.92927 0 0 1 6.13456,3.33457 13.06082,13.06082 0 0 1 3.57588,5.12551 19.10887,19.10887 0 0 1 -0.0704,13.28686 14.01874,14.01874 0 0 1 -3.68054,5.28271 17.11084,17.11084 0 0 1 -6.13455,3.44035 27.269,27.269 0 0 1 -8.62281,1.22874 z m 0,-7.37191 h 7.08134 a 14.1725,14.1725 0 0 0 4.52169,-0.64938 8.3933,8.3933 0 0 0 3.18954,-1.86048 7.6225,7.6225 0 0 0 1.89357,-2.94866 11.30269,11.30269 0 0 0 0.63087,-3.87915 10.25239,10.25239 0 0 0 -0.63087,-3.68571 7.27925,7.27925 0 0 0 -1.89357,-2.8086 8.41277,8.41277 0 0 0 -3.18954,-1.77233 14.93952,14.93952 0 0 0 -4.52169,-0.61461 h -7.08134 z"
       id="path9642"
       inkscape:connector-curvature="0"
       style="fill:#38466d" />
    <path
       d="m 262.948,134.42616 v 19.83357 h -9.42973 v -50.76 h 15.45863 a 32.26179,32.26179 0 0 1 8.88689,1.07055 16.93562,16.93562 0 0 1 6.06414,3.00155 11.57563,11.57563 0 0 1 3.47024,4.61619 16.19409,16.19409 0 0 1 0.35114,10.75888 14.047,14.047 0 0 1 -2.17331,4.14262 14.66569,14.66569 0 0 1 -3.50546,3.26454 18.34977,18.34977 0 0 1 -4.75056,2.24639 9.34781,9.34781 0 0 1 3.08488,2.91389 l 12.68969,18.74539 h -8.48294 a 4.12749,4.12749 0 0 1 -2.08528,-0.49169 4.25394,4.25394 0 0 1 -1.45539,-1.40406 l -10.65625,-16.25315 a 3.76245,3.76245 0 0 0 -1.31455,-1.29876 4.60554,4.60554 0 0 0 -2.12049,-0.38591 z m 0,-6.77492 h 5.889 a 14.57607,14.57607 0 0 0 4.64493,-0.667 8.98368,8.98368 0 0 0 3.26,-1.84334 7.39818,7.39818 0 0 0 1.9102,-2.79048 9.662,9.662 0 0 0 0.63087,-3.54565 7.21466,7.21466 0 0 0 -2.54107,-5.93258 q -2.54255,-2.07082 -7.765,-2.07107 H 262.948 Z"
       id="path9644"
       inkscape:connector-curvature="0"
       style="fill:#38466d" />
    <path
       d="m 309.74548,154.25973 h -9.464 v -50.76 h 9.464 z"
       id="path9646"
       inkscape:connector-curvature="0"
       style="fill:#38466d" />
    <path
       d="m 316.16075,103.49973 h 7.60657 a 3.17475,3.17475 0 0 1 1.99823,0.59649 3.65908,3.65908 0 0 1 1.1561,1.54461 l 11.919,30.96169 q 0.59565,1.5096 1.13947,3.31743 0.54284,1.80783 1.03384,3.80863 a 43.61371,43.61371 0 0 1 1.99823,-7.12606 l 11.88374,-30.96169 a 3.65466,3.65466 0 0 1 1.12186,-1.47409 3.02828,3.02828 0 0 1 1.99823,-0.667 h 7.60658 l -20.47232,50.76 h -8.51815 z"
       id="path9648"
       inkscape:connector-curvature="0"
       style="fill:#38466d" />
    <path
       d="m 409.54645,154.25973 h -7.29163 a 3.184,3.184 0 0 1 -2.01584,-0.61412 3.48834,3.48834 0 0 1 -1.13947,-1.527 l -3.78617,-10.35583 h -20.99755 l -3.78519,10.35583 a 3.32993,3.32993 0 0 1 -1.10426,1.47409 3.1024,3.1024 0 0 1 -2.01584,0.667 h -7.32684 l 19.9109,-50.76 h 9.64 z m -32.81186,-19.16656 h 16.16092 l -6.16977,-16.8849 q -0.42106,-1.1232 -0.92918,-2.65042 -0.50908,-1.52721 -0.9996,-3.31743 -0.49,1.79022 -0.96342,3.33506 -0.47388,1.54487 -0.92918,2.70282 z"
       id="path9650"
       inkscape:connector-curvature="0"
       style="fill:#38466d" />
    <path
       d="m 445.33755,103.49973 v 7.75781 h -15.24934 v 43.00219 h -9.42973 V 111.25754 H 405.3397 v -7.75781 z"
       id="path9652"
       inkscape:connector-curvature="0"
       style="fill:#38466d" />
    <path
       d="m 483.3,103.49973 v 7.512 h -22.47055 v 14.07679 h 17.70238 v 7.26661 H 460.82945 V 146.7125 H 483.3 v 7.54723 h -31.96972 v -50.76 z"
       id="path9654"
       inkscape:connector-curvature="0"
       style="fill:#38466d" />
    <g
       id="g9670"
       style="fill:#9ba2b5">
      <path
         d="m 221.75979,169.04814 a 1.6756,1.6756 0 0 1 -0.41345,0.47267 0.92977,0.92977 0 0 1 -0.55869,0.15772 1.36573,1.36573 0 0 1 -0.65068,-0.19062 q -0.34713,-0.19012 -0.78817,-0.42671 a 6.60491,6.60491 0 0 0 -1.00506,-0.42671 4.02609,4.02609 0 0 0 -1.28683,-0.19014 2.77075,2.77075 0 0 0 -1.85908,0.5317 1.8073,1.8073 0 0 0 -0.611,1.43737 1.32368,1.32368 0 0 0 0.368,0.95842 3.1594,3.1594 0 0 0 0.96536,0.65651 10.40526,10.40526 0 0 0 1.36623,0.50558 q 0.76831,0.22932 1.57053,0.51186 a 14.14575,14.14575 0 0 1 1.56956,0.66281 5.24944,5.24944 0 0 1 1.36623,0.97147 4.52759,4.52759 0 0 1 0.96536,1.43786 5.11339,5.11339 0 0 1 0.368,2.04116 6.63934,6.63934 0 0 1 -0.45993,2.48141 5.79566,5.79566 0 0 1 -1.33331,2.01552 6.18765,6.18765 0 0 1 -2.1544,1.35223 8.071,8.071 0 0 1 -2.90964,0.492 9.33,9.33 0 0 1 -1.81938,-0.18384 10.73189,10.73189 0 0 1 -1.79324,-0.51864 10.41571,10.41571 0 0 1 -1.62959,-0.79392 6.90436,6.90436 0 0 1 -1.32653,-1.0242 l 1.31394,-2.07406 a 1.06183,1.06183 0 0 1 0.40667,-0.38075 1.1544,1.1544 0 0 1 0.56547,-0.14466 1.494,1.494 0 0 1 0.794,0.24964 q 0.40088,0.24964 0.90727,0.55105 a 7.3017,7.3017 0 0 0 1.16192,0.55154 4.3621,4.3621 0 0 0 1.5502,0.24964 2.95859,2.95859 0 0 0 1.87941,-0.5317 2.02489,2.02489 0 0 0 0.67,-1.687 1.59663,1.59663 0 0 0 -0.36794,-1.09 2.854,2.854 0 0 0 -0.96633,-0.69571 8.8857,8.8857 0 0 0 -1.35945,-0.48573 q -0.76251,-0.20973 -1.56279,-0.4659 a 11.39545,11.39545 0 0 1 -1.56375,-0.6304 4.91534,4.91534 0 0 1 -1.35945,-0.98453 4.6091,4.6091 0 0 1 -0.96633,-1.523 6.0472,6.0472 0 0 1 -0.367,-2.25113 5.34644,5.34644 0 0 1 0.43282,-2.10067 5.43009,5.43009 0 0 1 1.27424,-1.82489 6.27335,6.27335 0 0 1 2.06338,-1.28014 7.62291,7.62291 0 0 1 2.7983,-0.479 10.49529,10.49529 0 0 1 1.71384,0.13789 9.03161,9.03161 0 0 1 1.58312,0.40687 8.71943,8.71943 0 0 1 1.39914,0.643 6.44548,6.44548 0 0 1 1.1629,0.84713 z"
         id="path9656"
         inkscape:connector-curvature="0" />
      <path
         d="m 252.76376,165.16224 v 3.51821 h -5.38648 v 15.60985 h -4.44048 v -15.60985 h -5.38551 v -3.51821 z"
         id="path9658"
         inkscape:connector-curvature="0" />
      <path
         d="m 286.23875,174.71974 a 10.27354,10.27354 0 0 1 -0.71652,3.85977 9.11848,9.11848 0 0 1 -5.14925,5.17232 11.43851,11.43851 0 0 1 -8.13927,0 9.13458,9.13458 0 0 1 -5.16959,-5.17232 10.76783,10.76783 0 0 1 0,-7.71954 9.18359,9.18359 0 0 1 2.02368,-3.09826 9.36284,9.36284 0 0 1 3.14591,-2.06148 10.7105,10.7105 0 0 1 4.07254,-0.748 10.5851,10.5851 0 0 1 4.06673,0.75473 9.39107,9.39107 0 0 1 3.13332,2.06777 9.23712,9.23712 0 0 1 2.01593,3.09827 10.23819,10.23819 0 0 1 0.71652,3.84674 z m -4.546,0 a 8.27286,8.27286 0 0 0 -0.36794,-2.5535 5.404,5.404 0 0 0 -1.05735,-1.9236 4.566,4.566 0 0 0 -1.6877,-1.20757 5.81619,5.81619 0 0 0 -2.27349,-0.41994 5.89658,5.89658 0 0 0 -2.29189,0.41994 4.5548,4.5548 0 0 0 -1.69544,1.20757 5.41864,5.41864 0 0 0 -1.05735,1.9236 9.09,9.09 0 0 0 0,5.12007 5.4122,5.4122 0 0 0 1.05735,1.92311 4.48647,4.48647 0 0 0 1.69544,1.20128 5.97858,5.97858 0 0 0 2.29189,0.41365 5.89692,5.89692 0 0 0 2.27349,-0.41365 4.49691,4.49691 0 0 0 1.6877,-1.20128 5.39757,5.39757 0 0 0 1.05735,-1.92311 8.3194,8.3194 0 0 0 0.36792,-2.56657 z"
         id="path9660"
         inkscape:connector-curvature="0" />
      <path
         d="m 306.33808,177.21422 v 7.07608 h -4.44048 v -19.12806 h 6.2279 a 12.77976,12.77976 0 0 1 3.54,0.42672 6.65339,6.65339 0 0 1 2.39163,1.18821 4.49642,4.49642 0 0 1 1.34589,1.79829 5.94667,5.94667 0 0 1 0.42023,2.25839 6.08722,6.08722 0 0 1 -0.24885,1.7591 5.32727,5.32727 0 0 1 -0.74266,1.5293 5.73706,5.73706 0 0 1 -1.2084,1.254 6.42948,6.42948 0 0 1 -1.649,0.90568 4.21231,4.21231 0 0 1 0.83465,0.55153 3.29649,3.29649 0 0 1 0.67585,0.80069 l 4.07254,6.65614 h -4.01929 a 1.707,1.707 0 0 1 -1.60345,-0.84036 l -3.17883,-5.55307 a 1.33873,1.33873 0 0 0 -0.49285,-0.52541 1.65155,1.65155 0 0 0 -0.79494,-0.15724 z m 0,-3.05907 h 1.78742 a 4.56668,4.56668 0 0 0 1.54342,-0.22981 2.78837,2.78837 0 0 0 1.04476,-0.63668 2.42767,2.42767 0 0 0 0.59065,-0.95164 3.64347,3.64347 0 0 0 0.184,-1.17515 2.46312,2.46312 0 0 0 -0.82109,-1.96908 3.82166,3.82166 0 0 0 -2.54171,-0.70925 h -1.78742 z"
         id="path9662"
         inkscape:connector-curvature="0" />
      <path
         d="m 350.5734,184.2903 h -3.44219 a 1.5875,1.5875 0 0 1 -0.95181,-0.269 1.38682,1.38682 0 0 1 -0.519,-0.68942 l -1.13,-3.33436 h -7.2784 l -1.13,3.33436 a 1.52213,1.52213 0 0 1 -1.44466,0.95841 H 331.209 l 7.40919,-19.12806 h 4.546 z m -12.297,-7.31266 h 5.2296 l -1.76128,-5.23812 q -0.16994,-0.49855 -0.3999,-1.17515 -0.23093,-0.67563 -0.45315,-1.4635 -0.21059,0.80045 -0.43378,1.48334 -0.22366,0.68287 -0.42023,1.18144 z"
         id="path9664"
         inkscape:connector-curvature="0" />
      <path
         d="m 374.023,181.08705 a 7.55632,7.55632 0 0 0 1.62862,-0.15772 7.97375,7.97375 0 0 0 1.34009,-0.41994 V 177.608 h -1.892 a 0.91819,0.91819 0 0 1 -0.65649,-0.22352 0.74115,0.74115 0 0 1 -0.23625,-0.56411 v -2.44223 h 6.805 v 8.07416 a 10.02823,10.02823 0 0 1 -1.53083,0.92551 9.85732,9.85732 0 0 1 -1.69447,0.63669 12.63131,12.63131 0 0 1 -1.91814,0.36769 18.99954,18.99954 0 0 1 -2.18732,0.118 10.03933,10.03933 0 0 1 -3.88857,-0.74166 9.29993,9.29993 0 0 1 -5.14344,-5.1462 10.07364,10.07364 0 0 1 -0.74267,-3.89267 10.57852,10.57852 0 0 1 0.70974,-3.93185 8.84793,8.84793 0 0 1 2.0295,-3.092 9.2085,9.2085 0 0 1 3.19238,-2.02181 11.5462,11.5462 0 0 1 4.18486,-0.72183 12.171,12.171 0 0 1 2.24638,0.19691 11.0805,11.0805 0 0 1 1.93751,0.538 8.92171,8.92171 0 0 1 1.62281,0.81424 8.77189,8.77189 0 0 1 1.313,1.02372 l -1.28683,1.95649 a 1.43187,1.43187 0 0 1 -0.44056,0.433 1.04355,1.04355 0 0 1 -0.55773,0.15772 1.54043,1.54043 0 0 1 -0.81528,-0.2627 q -0.52576,-0.315 -0.99151,-0.54476 a 6.11867,6.11867 0 0 0 -0.95277,-0.37446 6.30256,6.30256 0 0 0 -1.02443,-0.21 10.11331,10.11331 0 0 0 -1.2084,-0.0653 5.513,5.513 0 0 0 -2.24639,0.43978 4.80584,4.80584 0 0 0 -1.70124,1.24047 5.60973,5.60973 0 0 0 -1.08447,1.92311 7.75773,7.75773 0 0 0 -0.38052,2.50125 8.03034,8.03034 0 0 0 0.42022,2.70445 5.80726,5.80726 0 0 0 1.16289,1.99568 4.93948,4.93948 0 0 0 1.76032,1.24047 5.70179,5.70179 0 0 0 2.22699,0.42683 z"
         id="path9666"
         inkscape:connector-curvature="0" />
      <path
         d="m 409.572,165.16224 v 3.41322 h -7.85557 v 4.46354 h 6.01683 v 3.2821 h -6.01683 v 4.556 h 7.85557 v 3.41322 h -12.32316 v -19.12808 z"
         id="path9668"
         inkscape:connector-curvature="0" />
    </g>
  </g>
</svg>
